<mxfile host="app.diagrams.net" modified="2024-04-11T08:26:39.482Z" agent="Mozilla/5.0 (Windows NT 10.0; Win64; x64) AppleWebKit/537.36 (KHTML, like Gecko) Chrome/123.0.0.0 Safari/537.36" etag="fHpb2ZmJAxGCaBodQCc-" version="24.2.3" type="github">
  <diagram name="Strona-1" id="ygBUvrTi3dbgerGrj1ff">
    <mxGraphModel dx="1050" dy="639" grid="1" gridSize="10" guides="1" tooltips="1" connect="1" arrows="1" fold="1" page="1" pageScale="1" pageWidth="827" pageHeight="1169" math="0" shadow="0">
      <root>
        <mxCell id="0" />
        <mxCell id="1" parent="0" />
        <mxCell id="FjufyM6I4lk7l89lF6QR-11" style="edgeStyle=none;curved=1;rounded=0;orthogonalLoop=1;jettySize=auto;html=1;entryX=0.5;entryY=0;entryDx=0;entryDy=0;fontSize=12;startSize=8;endSize=8;endArrow=ERoneToMany;endFill=0;startArrow=ERmandOne;startFill=0;" edge="1" parent="1" source="FjufyM6I4lk7l89lF6QR-1" target="FjufyM6I4lk7l89lF6QR-3">
          <mxGeometry relative="1" as="geometry" />
        </mxCell>
        <mxCell id="FjufyM6I4lk7l89lF6QR-12" value="Wskazuje" style="edgeLabel;html=1;align=center;verticalAlign=middle;resizable=0;points=[];fontSize=12;" vertex="1" connectable="0" parent="FjufyM6I4lk7l89lF6QR-11">
          <mxGeometry x="-0.1733" y="2" relative="1" as="geometry">
            <mxPoint as="offset" />
          </mxGeometry>
        </mxCell>
        <mxCell id="FjufyM6I4lk7l89lF6QR-1" value="Pozycja" style="rounded=1;arcSize=10;whiteSpace=wrap;html=1;align=center;" vertex="1" parent="1">
          <mxGeometry x="430" y="500" width="100" height="40" as="geometry" />
        </mxCell>
        <mxCell id="FjufyM6I4lk7l89lF6QR-9" style="edgeStyle=none;curved=1;rounded=0;orthogonalLoop=1;jettySize=auto;html=1;fontSize=12;startSize=8;endSize=8;endArrow=ERzeroToMany;endFill=0;startArrow=ERmandOne;startFill=0;" edge="1" parent="1" source="FjufyM6I4lk7l89lF6QR-2" target="FjufyM6I4lk7l89lF6QR-1">
          <mxGeometry relative="1" as="geometry" />
        </mxCell>
        <mxCell id="FjufyM6I4lk7l89lF6QR-10" value="Zawiera" style="edgeLabel;html=1;align=center;verticalAlign=middle;resizable=0;points=[];fontSize=12;" vertex="1" connectable="0" parent="FjufyM6I4lk7l89lF6QR-9">
          <mxGeometry x="-0.2083" relative="1" as="geometry">
            <mxPoint as="offset" />
          </mxGeometry>
        </mxCell>
        <mxCell id="FjufyM6I4lk7l89lF6QR-2" value="Zamówienie" style="rounded=1;arcSize=10;whiteSpace=wrap;html=1;align=center;" vertex="1" parent="1">
          <mxGeometry x="430" y="380" width="100" height="40" as="geometry" />
        </mxCell>
        <mxCell id="FjufyM6I4lk7l89lF6QR-13" style="edgeStyle=none;curved=0;rounded=0;orthogonalLoop=1;jettySize=auto;html=1;entryX=1;entryY=0.5;entryDx=0;entryDy=0;fontSize=12;startSize=8;endSize=8;endArrow=none;endFill=0;startArrow=block;startFill=0;" edge="1" parent="1" source="FjufyM6I4lk7l89lF6QR-3" target="FjufyM6I4lk7l89lF6QR-6">
          <mxGeometry relative="1" as="geometry">
            <Array as="points">
              <mxPoint x="480" y="680" />
            </Array>
          </mxGeometry>
        </mxCell>
        <mxCell id="FjufyM6I4lk7l89lF6QR-3" value="Kontener" style="rounded=1;arcSize=10;whiteSpace=wrap;html=1;align=center;" vertex="1" parent="1">
          <mxGeometry x="430" y="590" width="100" height="40" as="geometry" />
        </mxCell>
        <mxCell id="FjufyM6I4lk7l89lF6QR-19" style="edgeStyle=none;curved=1;rounded=0;orthogonalLoop=1;jettySize=auto;html=1;fontSize=12;startSize=8;endSize=8;startArrow=ERoneToMany;startFill=0;endArrow=ERoneToMany;endFill=0;" edge="1" parent="1" source="FjufyM6I4lk7l89lF6QR-4" target="FjufyM6I4lk7l89lF6QR-5">
          <mxGeometry relative="1" as="geometry" />
        </mxCell>
        <mxCell id="FjufyM6I4lk7l89lF6QR-20" value="Opisuje" style="edgeLabel;html=1;align=center;verticalAlign=middle;resizable=0;points=[];fontSize=12;" vertex="1" connectable="0" parent="FjufyM6I4lk7l89lF6QR-19">
          <mxGeometry x="-0.208" y="-3" relative="1" as="geometry">
            <mxPoint as="offset" />
          </mxGeometry>
        </mxCell>
        <mxCell id="FjufyM6I4lk7l89lF6QR-22" style="edgeStyle=none;curved=0;rounded=0;orthogonalLoop=1;jettySize=auto;html=1;fontSize=12;startSize=8;endSize=8;startArrow=none;startFill=0;endArrow=block;endFill=0;exitX=0;exitY=0.5;exitDx=0;exitDy=0;strokeColor=default;" edge="1" parent="1" source="FjufyM6I4lk7l89lF6QR-4" target="FjufyM6I4lk7l89lF6QR-3">
          <mxGeometry relative="1" as="geometry">
            <Array as="points">
              <mxPoint x="480" y="680" />
            </Array>
          </mxGeometry>
        </mxCell>
        <mxCell id="FjufyM6I4lk7l89lF6QR-4" value="Kubek" style="rounded=1;arcSize=10;whiteSpace=wrap;html=1;align=center;" vertex="1" parent="1">
          <mxGeometry x="600" y="660" width="100" height="40" as="geometry" />
        </mxCell>
        <mxCell id="FjufyM6I4lk7l89lF6QR-5" value="Kolor" style="rounded=1;arcSize=10;whiteSpace=wrap;html=1;align=center;" vertex="1" parent="1">
          <mxGeometry x="600" y="810" width="100" height="40" as="geometry" />
        </mxCell>
        <mxCell id="FjufyM6I4lk7l89lF6QR-6" value="Rożek" style="rounded=1;arcSize=10;whiteSpace=wrap;html=1;align=center;" vertex="1" parent="1">
          <mxGeometry x="250" y="660" width="100" height="40" as="geometry" />
        </mxCell>
      </root>
    </mxGraphModel>
  </diagram>
</mxfile>
